<svg width="32" height="32" viewBox="0 0 32 32" fill="none" xmlns="http://www.w3.org/2000/svg">
<path d="M27.5 15.5H25.5C25.4343 15.5002 25.3692 15.4873 25.3085 15.4623C25.2477 15.4372 25.1926 15.4004 25.1461 15.3539C25.0996 15.3075 25.0628 15.2523 25.0377 15.1915C25.0127 15.1308 24.9998 15.0657 25 15V14.7198C26.1839 13.9895 27.0308 12.8205 27.3558 11.468C27.8046 11.3869 28.2123 11.1549 28.5111 10.8103C28.8099 10.4658 28.982 10.0295 28.9989 9.57368C29.0157 9.1179 28.8762 8.67007 28.6036 8.30442C28.331 7.93878 27.9416 7.67729 27.5 7.56333V5.50001C27.4988 4.62287 27.1687 3.77807 26.5749 3.13249C25.9811 2.48691 25.1668 2.08751 24.2928 2.0132C24.0822 1.70019 23.7976 1.44397 23.4643 1.26724C23.131 1.09051 22.7592 0.998721 22.3819 1.00001H20.5C19.3069 1.00135 18.1631 1.47589 17.3195 2.31951C16.4759 3.16314 16.0013 4.30695 16 5.50001V7.00001C16 7.13262 16.0527 7.2598 16.1464 7.35357C16.2402 7.44733 16.3674 7.50001 16.5 7.50001H17V7.56308C16.5586 7.67703 16.1694 7.93836 15.8968 8.30378C15.6242 8.66919 15.4847 9.11677 15.5012 9.57235C15.5178 10.0279 15.6896 10.4642 15.988 10.8088C16.2864 11.1534 16.6936 11.3858 17.1421 11.4673C17.1551 11.5222 17.169 11.5768 17.1838 11.6313L18.1487 11.3688C18.0497 11.0041 17.9997 10.6279 18 10.25V7.48489C19.9745 7.3905 21.8975 6.82374 23.6075 5.8322C23.7454 6.35882 24.0126 6.84268 24.3849 7.23988C24.7571 7.63708 25.2227 7.93505 25.7393 8.10676L26.5 8.36039V10.25C26.4999 11.0298 26.2853 11.7946 25.8797 12.4606C25.474 13.1266 24.893 13.6681 24.2002 14.026C23.5073 14.3839 22.7294 14.5442 21.9515 14.4895C21.1736 14.4348 20.4258 14.1672 19.7898 13.7159L19.2102 14.5308C19.4595 14.7079 19.7238 14.8629 20 14.9941V15C19.9999 15.1326 19.9471 15.2597 19.8534 15.3534C19.7597 15.4471 19.6326 15.4999 19.5 15.5H19V14C18.9994 13.4698 18.7885 12.9614 18.4136 12.5865C18.0386 12.2115 17.5303 12.0006 17 12H3C2.46975 12.0006 1.96139 12.2115 1.58644 12.5865C1.2115 12.9614 1.0006 13.4698 1 14V15.5H2V14C2.00031 13.7349 2.10577 13.4807 2.29324 13.2933C2.48071 13.1058 2.73488 13.0003 3 13H17C17.2651 13.0003 17.5193 13.1058 17.7068 13.2933C17.8942 13.4807 17.9997 13.7349 18 14V23C17.9997 23.2651 17.8942 23.5193 17.7068 23.7068C17.5193 23.8942 17.2651 23.9997 17 24H11.4756L11.9889 21.6048C12.0045 21.5319 12.0036 21.4564 11.9863 21.3839C11.969 21.3114 11.9357 21.2437 11.8888 21.1857C11.8419 21.1277 11.7827 21.0809 11.7154 21.0488C11.6482 21.0167 11.5746 21 11.5 21H8C7.90215 21 7.80645 21.0287 7.72476 21.0826C7.64307 21.1365 7.57898 21.2131 7.54044 21.3031L6.38462 24H3C2.73488 23.9997 2.48071 23.8942 2.29324 23.7068C2.10577 23.5193 2.00031 23.2651 2 23V16.5H1V23C1.0006 23.5303 1.2115 24.0386 1.58644 24.4136C1.96139 24.7885 2.46975 24.9994 3 25H5.95625L4.67031 28H1.5C1.36739 28 1.24021 28.0527 1.14645 28.1465C1.05268 28.2402 1 28.3674 1 28.5V30.5C1 30.6326 1.05268 30.7598 1.14645 30.8536C1.24021 30.9473 1.36739 31 1.5 31H30.5C30.6326 31 30.7598 30.9473 30.8536 30.8536C30.9473 30.7598 31 30.6326 31 30.5V28.5C31 28.3674 30.9473 28.2402 30.8536 28.1465C30.7598 28.0527 30.6326 28 30.5 28H29.6415C30.0684 27.6254 30.4104 27.164 30.6446 26.6467C30.8789 26.1293 31.0001 25.5679 31 25V24.5H30V25C29.9991 25.7954 29.6827 26.5579 29.1203 27.1203C28.5579 27.6827 27.7954 27.9991 27 28H19V27C19.0005 26.6023 19.1586 26.2211 19.4399 25.9399C19.7211 25.6587 20.1023 25.5005 20.5 25.5H27C27.1326 25.5 27.2598 25.4473 27.3536 25.3536C27.4473 25.2598 27.5 25.1326 27.5 25V21.5H30V23.5H31V19C30.9989 18.0721 30.6299 17.1825 29.9737 16.5263C29.3176 15.8702 28.4279 15.5011 27.5 15.5ZM27.5 10.25V8.63532C27.6328 8.71184 27.7462 8.81789 27.8314 8.94526C27.9166 9.07263 27.9713 9.2179 27.9914 9.36982C28.0115 9.52175 27.9963 9.67625 27.9471 9.82137C27.8978 9.9665 27.8159 10.0983 27.7075 10.2067C27.6447 10.269 27.5739 10.3228 27.4971 10.3668C27.4979 10.3278 27.5 10.2891 27.5 10.25ZM16.5 9.50001C16.4997 9.36875 16.5255 9.23873 16.5757 9.11745C16.6259 8.99616 16.6995 8.88601 16.7925 8.79332C16.8545 8.73182 16.9243 8.67863 17 8.63508V10.25C17 10.2887 17.0011 10.3273 17.0019 10.3659C16.8496 10.2784 16.723 10.1523 16.6349 10.0003C16.5467 9.84826 16.5002 9.67571 16.5 9.50001ZM23.5 4.72876C21.6746 5.88767 19.5566 6.5021 17.3944 6.50001H17V5.94308C21.2802 5.38251 22.7894 3.9177 22.8536 3.85358L22.1496 3.14333C22.146 3.14683 21.7823 3.49264 20.9045 3.89239C20.1661 4.2287 18.9187 4.66576 17.0476 4.92751C17.1008 4.60441 17.1995 4.29047 17.3407 3.99501C19.2113 3.9422 20.181 3.46851 20.2236 3.4472L19.7791 2.55145C19.772 2.55495 19.2122 2.8197 18.116 2.94076C18.7624 2.33588 19.6147 1.99955 20.5 2.00001H22.3819C22.6067 1.99921 22.8278 2.05663 23.0237 2.16669C23.2197 2.27675 23.3837 2.43568 23.5 2.62801V4.72876ZM26.0555 7.15814C25.6023 7.00754 25.2081 6.71797 24.9289 6.33055C24.6496 5.94313 24.4996 5.47757 24.5 5.00001V3.05001C25.0643 3.16605 25.5713 3.47309 25.9357 3.91938C26.3 4.36566 26.4993 4.92391 26.5 5.50001V7.30626L26.0555 7.15814ZM20.9607 15.3399C21.97 15.5949 23.0323 15.5444 24.0129 15.1946C24.0551 15.5229 24.2052 15.8279 24.4396 16.0616C24.5133 16.1351 24.5945 16.2009 24.6817 16.2577L24.5392 16.4476C24.286 16.7863 23.9547 17.0588 23.5736 17.242C23.1924 17.4252 22.7727 17.5137 22.35 17.4999C21.9274 17.4861 21.5143 17.3705 21.1459 17.1629C20.7775 16.9553 20.4646 16.6619 20.2339 16.3075C20.4154 16.2053 20.5737 16.0665 20.6988 15.9C20.8239 15.7334 20.9131 15.5427 20.9607 15.3399ZM18 27V28H15.5V27H18ZM16.9385 25H17C17.1687 25.0001 17.3367 24.9788 17.5 24.9367V26H16.5385L16.9385 25ZM12.9385 25H15.8615L15.4615 26H15C14.8674 26 14.7402 26.0527 14.6464 26.1465C14.5527 26.2402 14.5 26.3674 14.5 26.5V28H13.5V26.5C13.5 26.3674 13.4473 26.2402 13.3536 26.1465C13.2598 26.0527 13.1326 26 13 26H12.5385L12.9385 25ZM11.2613 25H11.8613L11.4613 26H11.0469L11.2613 25ZM12.5 27V28H10.6187L10.833 27H12.5ZM8.32969 22H10.8813L9.59556 28H5.75806L8.32969 22ZM30 29V30H2V29H30ZM30 20.5H27.5V19H26.5V24.5H20.5C20.1117 24.5 19.7288 24.5906 19.3816 24.7645C19.0344 24.9384 18.7326 25.1908 18.5 25.5018V24.3205C18.8224 23.9562 19.0002 23.4865 19 23V16.5H19.1913C19.4689 17.0524 19.883 17.5247 20.3943 17.8722C20.9056 18.2197 21.4971 18.4309 22.1129 18.4857C22.7287 18.5406 23.3482 18.4372 23.9129 18.1855C24.4775 17.9338 24.9685 17.5421 25.3394 17.0475L25.75 16.5H27.5C28.1628 16.5008 28.7983 16.7644 29.2669 17.2331C29.7356 17.7017 29.9993 18.3372 30 19V20.5ZM24.4614 19.05L24.8974 19.95C24.0893 20.3414 23.1977 20.529 22.3005 20.4964C21.4032 20.4638 20.5276 20.2121 19.75 19.7631L20.25 18.8971C20.8862 19.2644 21.6026 19.4704 22.3367 19.4971C23.0709 19.5237 23.8004 19.3702 24.4615 19.05H24.4614ZM21 9.00001C21 9.19779 20.9414 9.39113 20.8315 9.55558C20.7216 9.72003 20.5654 9.8482 20.3827 9.92389C20.2 9.99958 19.9989 10.0194 19.8049 9.9808C19.6109 9.94221 19.4327 9.84697 19.2929 9.70712C19.153 9.56727 19.0578 9.38908 19.0192 9.1951C18.9806 9.00112 19.0004 8.80006 19.0761 8.61733C19.1518 8.4346 19.28 8.27842 19.4444 8.16854C19.6089 8.05866 19.8022 8.00001 20 8.00001C20.2651 8.00033 20.5193 8.10579 20.7068 8.29325C20.8942 8.48072 20.9997 8.73489 21 9.00001ZM23 9.00001C23 8.80223 23.0586 8.60889 23.1685 8.44444C23.2784 8.27999 23.4346 8.15182 23.6173 8.07613C23.8 8.00045 24.0011 7.98064 24.1951 8.01923C24.3891 8.05781 24.5673 8.15305 24.7071 8.29291C24.847 8.43276 24.9422 8.61094 24.9808 8.80492C25.0194 8.9989 24.9996 9.19997 24.9239 9.3827C24.8482 9.56542 24.72 9.7216 24.5556 9.83148C24.3911 9.94136 24.1978 10 24 10C23.7349 9.9997 23.4807 9.89424 23.2932 9.70677C23.1058 9.5193 23.0003 9.26513 23 9.00001ZM23.2273 10.6375L23.7727 11.4757C23.2451 11.8187 22.6293 12.0012 22 12.0012C21.3707 12.0012 20.7549 11.8187 20.2273 11.4757L20.7727 10.6375C21.138 10.875 21.5643 11.0014 22 11.0014C22.4357 11.0014 22.862 10.875 23.2273 10.6375ZM8 15.5H6V14.5H8V15.5ZM11 14.5V15.5H9V14.5H11ZM14 14.5V15.5H12V14.5H14ZM17 15.5H15V14.5H17V15.5ZM5 14.5V15.5H3V14.5H5Z" fill="url(#paint0_linear_146_473)"/>
<defs>
<linearGradient id="paint0_linear_146_473" x1="16" y1="1" x2="16" y2="31" gradientUnits="userSpaceOnUse">
<stop stop-color="#FD1E43"/>
<stop offset="1" stop-color="#F4197D"/>
</linearGradient>
</defs>
</svg>
