<svg width="32" height="32" viewBox="0 0 32 32" fill="none" xmlns="http://www.w3.org/2000/svg">
<g clip-path="url(#clip0_146_209)">
<path d="M1 27.502H1.76C1.812 27.65 1.8725 27.7945 1.9395 27.936L1.402 28.4735C1.308 28.5675 1.2555 28.6945 1.2555 28.827C1.2555 28.9595 1.308 29.087 1.402 29.1805L2.819 30.5975C3.0065 30.785 3.3385 30.785 3.526 30.5975L4.064 30.0595C4.2055 30.127 4.35 30.1865 4.4975 30.2385V31C4.4975 31.276 4.7215 31.5 4.9975 31.5H7.0015C7.2775 31.5 7.5015 31.276 7.5015 31V30.2375C7.6485 30.1855 7.793 30.1255 7.9335 30.0585L8.473 30.598C8.567 30.692 8.694 30.7445 8.8265 30.7445C8.959 30.7445 9.0865 30.692 9.18 30.598L10.597 29.181C10.691 29.087 10.7435 28.96 10.7435 28.8275C10.7435 28.695 10.691 28.5675 10.597 28.474L10.057 27.934C10.124 27.7935 10.1835 27.6495 10.2355 27.5025H11C11.276 27.5025 11.5 27.2785 11.5 27.0025V24.9985C11.5 24.7225 11.276 24.4985 11 24.4985H10.236C10.184 24.3515 10.1245 24.2075 10.0575 24.067L10.5975 23.527C10.6915 23.433 10.744 23.306 10.744 23.1735C10.744 23.041 10.6915 22.9135 10.5975 22.82L9.1805 21.403C8.993 21.2155 8.661 21.2155 8.4735 21.403L7.934 21.9425C7.7935 21.8755 7.649 21.816 7.502 21.7635V21C7.502 20.724 7.278 20.5 7.002 20.5H4.998C4.722 20.5 4.498 20.724 4.498 21V21.761C4.3505 21.813 4.206 21.873 4.0645 21.94L3.5265 21.402C3.4325 21.308 3.3055 21.2555 3.173 21.2555C3.0405 21.2555 2.913 21.308 2.8195 21.402L1.4025 22.819C1.3085 22.913 1.256 23.04 1.256 23.1725C1.256 23.305 1.3085 23.4325 1.4025 23.526L1.94 24.0635C1.8725 24.2055 1.8125 24.35 1.76 24.498H1C0.724 24.498 0.5 24.722 0.5 24.998V27.002C0.5 27.278 0.724 27.502 1 27.502ZM1.5 25.498H2.1295C2.3575 25.498 2.5565 25.3435 2.6135 25.123C2.695 24.8075 2.82 24.5055 2.985 24.226C3.101 24.0295 3.069 23.7795 2.908 23.6185L2.4625 23.173L3.1725 22.463L3.618 22.909C3.7785 23.07 4.028 23.102 4.2255 22.986C4.505 22.8215 4.8065 22.6965 5.122 22.6155C5.343 22.5585 5.497 22.3595 5.497 22.1315V21.5H6.501V22.132C6.501 22.36 6.655 22.559 6.8755 22.616C7.1915 22.698 7.4925 22.823 7.7715 22.9875C7.9675 23.103 8.2185 23.0715 8.379 22.9105L8.826 22.463L9.536 23.173L9.088 23.621C8.927 23.782 8.895 24.032 9.011 24.2285C9.175 24.507 9.2995 24.808 9.381 25.124C9.438 25.3445 9.637 25.499 9.865 25.499H10.5V26.503H9.8665C9.6385 26.503 9.4395 26.657 9.3825 26.878C9.301 27.1935 9.176 27.495 9.0125 27.7735C8.8965 27.97 8.9285 28.22 9.0895 28.381L9.537 28.8285L8.827 29.5385L8.38 29.09C8.2195 28.929 7.969 28.897 7.7725 29.013C7.494 29.1775 7.1925 29.3025 6.8765 29.3845C6.656 29.4415 6.502 29.6405 6.502 29.8685V30.5H5.498V29.869C5.498 29.641 5.3435 29.442 5.123 29.385C4.8075 29.3035 4.5055 29.179 4.2265 29.0145C4.029 28.899 3.7795 28.931 3.619 29.0915L3.1735 29.537L2.4635 28.827L2.9085 28.382C3.07 28.221 3.1015 27.971 2.9855 27.7745C2.8205 27.4945 2.6955 27.193 2.614 26.8775C2.557 26.657 2.358 26.5025 2.13 26.5025H1.5V25.498Z" fill="url(#paint0_linear_146_209)"/>
<path d="M6 28.5C7.3785 28.5 8.5 27.3785 8.5 26C8.5 24.6215 7.3785 23.5 6 23.5C4.6215 23.5 3.5 24.6215 3.5 26C3.5 27.3785 4.6215 28.5 6 28.5ZM6 24.5C6.827 24.5 7.5 25.173 7.5 26C7.5 26.827 6.827 27.5 6 27.5C5.173 27.5 4.5 26.827 4.5 26C4.5 25.173 5.173 24.5 6 24.5Z" fill="url(#paint1_linear_146_209)"/>
<path d="M31.4741 3.133C31.4146 2.9555 31.2606 2.8255 31.0756 2.7975L29.2666 2.5215L28.4531 0.788C28.3706 0.612 28.1941 0.5 28.0001 0.5C27.8061 0.5 27.6296 0.612 27.5476 0.7875L26.7341 2.521L24.9251 2.797C24.7396 2.8255 24.5861 2.955 24.5266 3.1325C24.4671 3.31 24.5121 3.5065 24.6426 3.6405L25.9661 4.997L25.6531 6.919C25.6221 7.108 25.7021 7.298 25.8586 7.4085C26.0151 7.5185 26.2206 7.5295 26.3886 7.4375L28.0001 6.5465L29.6121 7.4375C29.6876 7.479 29.7711 7.5 29.8541 7.5C29.9551 7.5 30.0561 7.469 30.1421 7.4085C30.2986 7.2985 30.3786 7.108 30.3476 6.919L30.0346 4.997L31.3581 3.6405C31.4891 3.507 31.5336 3.311 31.4741 3.133ZM29.1421 4.48C29.0311 4.5935 28.9811 4.753 29.0066 4.9095L29.1946 6.064L28.2416 5.5375C28.1666 5.496 28.0831 5.475 27.9996 5.475C27.9161 5.475 27.8331 5.496 27.7576 5.5375L26.8046 6.064L26.9926 4.9095C27.0181 4.753 26.9681 4.5935 26.8571 4.48L26.0366 3.639L27.1476 3.4695C27.3126 3.444 27.4541 3.3385 27.5246 3.1875L28.0001 2.177L28.4746 3.1875C28.5456 3.3385 28.6871 3.444 28.8516 3.4695L29.9626 3.639L29.1421 4.48Z" fill="url(#paint2_linear_146_209)"/>
<path d="M23.6886 6.53804C23.4166 6.49654 23.1356 6.56854 22.9186 6.73854L18.9956 9.80754C19.2111 9.39304 19.3106 8.92754 19.2706 8.45054C19.2146 7.78504 18.9026 7.18154 18.3921 6.75054C17.8816 6.31954 17.2351 6.11404 16.5691 6.16954C15.9036 6.22604 15.3001 6.53804 14.8691 7.04804C14.4386 7.55854 14.2321 8.20554 14.2881 8.87104C14.3361 9.43504 14.5761 9.94753 14.9561 10.355C14.3741 10.499 13.8606 10.8435 13.5161 11.336L9.5766 16.713C9.3516 17.0345 9.3336 17.4455 9.5296 17.7855C9.7251 18.125 10.0871 18.314 10.4806 18.283L11.6786 18.1815C11.9696 18.157 12.2346 18.007 12.3981 17.7795L14.7766 14.6505L14.9566 16.7855L13.7751 24.8895C13.3291 24.981 12.8811 25.063 12.4306 25.126L12.5691 26.116C14.1381 25.8965 15.6866 25.511 17.1711 24.9695C20.0511 23.9195 22.3531 22.408 24.1281 20.8905L24.2401 20.857L24.2246 20.805C25.9371 19.324 27.1511 17.8455 27.9066 16.791C28.0031 16.656 28.0266 16.4825 27.9691 16.3275C27.9121 16.172 27.7816 16.055 27.6211 16.015L26.8501 15.822L29.6576 14.2625L30.3206 17.2465L29.6586 17.026C29.4431 16.954 29.2076 17.0365 29.0831 17.225L29.0001 17.35C22.7146 26.9195 15.7276 29.2395 10.9726 29.5005L11.0271 30.499C15.9786 30.227 23.2241 27.8485 29.7056 18.0955L30.8411 18.474C31.0116 18.5315 31.2001 18.4915 31.3341 18.371C31.4681 18.2505 31.5261 18.067 31.4871 17.8915L30.4871 13.3915C30.4531 13.2375 30.3481 13.1085 30.2041 13.044C30.0601 12.98 29.8946 12.986 29.7561 13.063L25.2561 15.563C25.0766 15.6625 24.9766 15.862 25.0036 16.0655C25.0301 16.269 25.1791 16.4355 25.3781 16.485L26.6506 16.803C25.9911 17.656 25.0806 18.6945 23.9091 19.749L23.0176 16.7585C22.9346 16.5015 22.7481 16.286 22.5166 16.1725L20.4611 15.102L20.1396 12.658L24.7176 9.17004C25.1411 8.84804 25.2381 8.25104 24.9381 7.81154L24.3601 6.96254C24.2061 6.73554 23.9611 6.58054 23.6886 6.53804ZM16.6531 7.16654C16.6961 7.16304 16.7391 7.16104 16.7821 7.16104C17.1356 7.16104 17.4741 7.28454 17.7471 7.51504C18.0531 7.77354 18.2401 8.13554 18.2741 8.53504C18.3076 8.93454 18.1841 9.32304 17.9256 9.62903C17.6671 9.93503 17.3051 10.1225 16.9056 10.156C16.5056 10.1905 16.1176 10.066 15.8116 9.80754C15.5056 9.54904 15.3181 9.18704 15.2846 8.78754C15.2151 7.96304 15.8291 7.23604 16.6531 7.16654ZM17.3326 23.8335L18.3731 17.829L20.2111 18.721L21.2976 21.771C20.1391 22.537 18.8196 23.2475 17.3326 23.8335ZM19.3041 12.0385C19.1616 12.147 19.0881 12.3235 19.1111 12.5015L19.5041 15.491C19.5256 15.6525 19.6241 15.794 19.7691 15.869L22.0631 17.055L23.0791 20.4635C22.7836 20.7045 22.4721 20.9435 22.1481 21.1805L21.1471 18.3705C21.0551 18.1375 20.8811 17.949 20.6571 17.8395L18.2136 16.6405C18.0726 16.5715 17.9071 16.573 17.7661 16.644C17.6256 16.7155 17.5271 16.849 17.5006 17.004L16.2496 24.225C15.7786 24.3815 15.3026 24.5255 14.8211 24.6495L15.9551 16.874C15.9606 16.836 15.9616 16.798 15.9586 16.7595L15.6641 13.272C15.6466 13.0655 15.5041 12.8915 15.3056 12.834C15.1066 12.7755 14.8931 12.847 14.7681 13.0115L11.5951 17.186L10.3906 17.296L14.3301 11.919C14.5861 11.5535 14.9881 11.322 15.4331 11.284L16.9896 11.1525H16.9906H16.9911L18.9836 10.984C19.0806 10.9755 19.1731 10.9395 19.2496 10.8795L23.5356 7.52654L24.1141 8.37554L19.3041 12.0385Z" fill="url(#paint3_linear_146_209)"/>
<path d="M2 1H3V2H2V1Z" fill="url(#paint4_linear_146_209)"/>
<path d="M3 2H4V3H3V2Z" fill="url(#paint5_linear_146_209)"/>
<path d="M1 2H2V3H1V2Z" fill="url(#paint6_linear_146_209)"/>
<path d="M2 3H3V4H2V3Z" fill="url(#paint7_linear_146_209)"/>
<path d="M6 2.5H7V3.5H6V2.5Z" fill="url(#paint8_linear_146_209)"/>
<path d="M7 3.5H8V4.5H7V3.5Z" fill="url(#paint9_linear_146_209)"/>
<path d="M5 3.5H6V4.5H5V3.5Z" fill="url(#paint10_linear_146_209)"/>
<path d="M6 4.5H7V5.5H6V4.5Z" fill="url(#paint11_linear_146_209)"/>
<path d="M29 28H30V29H29V28Z" fill="url(#paint12_linear_146_209)"/>
<path d="M30 29H31V30H30V29Z" fill="url(#paint13_linear_146_209)"/>
<path d="M28 29H29V30H28V29Z" fill="url(#paint14_linear_146_209)"/>
<path d="M29 30H30V31H29V30Z" fill="url(#paint15_linear_146_209)"/>
</g>
<defs>
<linearGradient id="paint0_linear_146_209" x1="6" y1="20.5" x2="6" y2="31.5" gradientUnits="userSpaceOnUse">
<stop stop-color="#FD1E43"/>
<stop offset="1" stop-color="#F4197D"/>
</linearGradient>
<linearGradient id="paint1_linear_146_209" x1="6" y1="23.5" x2="6" y2="28.5" gradientUnits="userSpaceOnUse">
<stop stop-color="#FD1E43"/>
<stop offset="1" stop-color="#F4197D"/>
</linearGradient>
<linearGradient id="paint2_linear_146_209" x1="28.0004" y1="0.5" x2="28.0004" y2="7.5" gradientUnits="userSpaceOnUse">
<stop stop-color="#FD1E43"/>
<stop offset="1" stop-color="#F4197D"/>
</linearGradient>
<linearGradient id="paint3_linear_146_209" x1="20.4467" y1="6.16064" x2="20.4467" y2="30.499" gradientUnits="userSpaceOnUse">
<stop stop-color="#FD1E43"/>
<stop offset="1" stop-color="#F4197D"/>
</linearGradient>
<linearGradient id="paint4_linear_146_209" x1="2.5" y1="1" x2="2.5" y2="2" gradientUnits="userSpaceOnUse">
<stop stop-color="#FD1E43"/>
<stop offset="1" stop-color="#F4197D"/>
</linearGradient>
<linearGradient id="paint5_linear_146_209" x1="3.5" y1="2" x2="3.5" y2="3" gradientUnits="userSpaceOnUse">
<stop stop-color="#FD1E43"/>
<stop offset="1" stop-color="#F4197D"/>
</linearGradient>
<linearGradient id="paint6_linear_146_209" x1="1.5" y1="2" x2="1.5" y2="3" gradientUnits="userSpaceOnUse">
<stop stop-color="#FD1E43"/>
<stop offset="1" stop-color="#F4197D"/>
</linearGradient>
<linearGradient id="paint7_linear_146_209" x1="2.5" y1="3" x2="2.5" y2="4" gradientUnits="userSpaceOnUse">
<stop stop-color="#FD1E43"/>
<stop offset="1" stop-color="#F4197D"/>
</linearGradient>
<linearGradient id="paint8_linear_146_209" x1="6.5" y1="2.5" x2="6.5" y2="3.5" gradientUnits="userSpaceOnUse">
<stop stop-color="#FD1E43"/>
<stop offset="1" stop-color="#F4197D"/>
</linearGradient>
<linearGradient id="paint9_linear_146_209" x1="7.5" y1="3.5" x2="7.5" y2="4.5" gradientUnits="userSpaceOnUse">
<stop stop-color="#FD1E43"/>
<stop offset="1" stop-color="#F4197D"/>
</linearGradient>
<linearGradient id="paint10_linear_146_209" x1="5.5" y1="3.5" x2="5.5" y2="4.5" gradientUnits="userSpaceOnUse">
<stop stop-color="#FD1E43"/>
<stop offset="1" stop-color="#F4197D"/>
</linearGradient>
<linearGradient id="paint11_linear_146_209" x1="6.5" y1="4.5" x2="6.5" y2="5.5" gradientUnits="userSpaceOnUse">
<stop stop-color="#FD1E43"/>
<stop offset="1" stop-color="#F4197D"/>
</linearGradient>
<linearGradient id="paint12_linear_146_209" x1="29.5" y1="28" x2="29.5" y2="29" gradientUnits="userSpaceOnUse">
<stop stop-color="#FD1E43"/>
<stop offset="1" stop-color="#F4197D"/>
</linearGradient>
<linearGradient id="paint13_linear_146_209" x1="30.5" y1="29" x2="30.5" y2="30" gradientUnits="userSpaceOnUse">
<stop stop-color="#FD1E43"/>
<stop offset="1" stop-color="#F4197D"/>
</linearGradient>
<linearGradient id="paint14_linear_146_209" x1="28.5" y1="29" x2="28.5" y2="30" gradientUnits="userSpaceOnUse">
<stop stop-color="#FD1E43"/>
<stop offset="1" stop-color="#F4197D"/>
</linearGradient>
<linearGradient id="paint15_linear_146_209" x1="29.5" y1="30" x2="29.5" y2="31" gradientUnits="userSpaceOnUse">
<stop stop-color="#FD1E43"/>
<stop offset="1" stop-color="#F4197D"/>
</linearGradient>
<clipPath id="clip0_146_209">
<rect width="32" height="32" fill="white"/>
</clipPath>
</defs>
</svg>
