<svg width="100" height="16" viewBox="0 0 100 16" fill="none" xmlns="http://www.w3.org/2000/svg">
<path fill-rule="evenodd" clip-rule="evenodd" d="M37.0724 8.30935L42.9145 16H40.9458L36.0882 9.60514L31.2304 16H29.2617L40.9458 0.618585H42.9145L37.0724 8.30935ZM29.2617 0.618585H31.2304L34.3623 4.74183H32.3937L29.2617 0.618585Z" fill="#82798E"/>
<path fill-rule="evenodd" clip-rule="evenodd" d="M7.91096 2.73415L6.8738 4.9327L1.72333 16H0L6.15121 2.81296L7.04044 0.871244L7.91096 2.73415ZM14.0566 16H12.3332L9.584 10.0574H11.2971L14.0566 16Z" fill="#82798E"/>
<path fill-rule="evenodd" clip-rule="evenodd" d="M60.738 0.618585H72.1609V2.18644H60.738V0.618585ZM62.3059 14.4323H72.1609V16H60.738V14.4323H62.3059ZM60.738 9.10398V7.53613H62.3059H72.1609V9.10398H67.2333H62.3059H60.738Z" fill="#82798E"/>
<path fill-rule="evenodd" clip-rule="evenodd" d="M100 14.4323V16H89.9036V14.4323H100ZM91.4719 0.618585V11.9398H89.9036V0.618585H91.4719Z" fill="#82798E"/>
</svg>
