<svg width="100" height="19" viewBox="0 0 100 19" fill="none" xmlns="http://www.w3.org/2000/svg">
<path fill-rule="evenodd" clip-rule="evenodd" d="M32.2925 18.658H33.6392V10.7923C33.6392 9.15644 34.3593 7.71742 35.8055 6.90494C36.5468 6.48844 37.4018 6.28793 38.2502 6.29892C39.0656 6.30946 39.8812 6.51525 40.5916 6.91896C42.0254 7.73379 42.7449 9.16417 42.7449 10.7923V18.658H44.092V10.9878C44.092 8.53292 42.9513 6.42497 40.6329 5.45987C39.8573 5.13713 39.015 4.97811 38.1756 4.98035C37.3506 4.98271 36.5239 5.14094 35.7612 5.45718C35.3625 5.62248 34.982 5.83107 34.6302 6.08126C34.4341 6.22087 34.193 6.23803 33.979 6.12757C33.765 6.01722 33.6392 5.81088 33.6392 5.56999V5.27125H32.3413V10.0978C32.3413 10.1214 32.3401 10.1417 32.3376 10.1653C32.308 10.4385 32.2925 10.7131 32.2925 10.9878V18.658ZM40.1198 10.7923V18.658H41.4325V10.7923C41.4325 9.63899 40.9647 8.64069 39.9433 8.06024C39.4259 7.7662 38.8268 7.61918 38.2334 7.61144C37.6162 7.60337 36.9882 7.74613 36.4485 8.04936C35.4181 8.62825 34.9521 9.63383 34.9521 10.7923V12.2905H36.2646V10.7923C36.2646 10.1132 36.4816 9.53638 37.0914 9.19367C37.4292 9.00404 37.8311 8.91892 38.2163 8.92396C38.5875 8.92878 38.9706 9.01716 39.2948 9.20141C39.8996 9.54524 40.1198 10.1154 40.1198 10.7923Z" fill="#82798E"/>
<path fill-rule="evenodd" clip-rule="evenodd" d="M88.493 5.27114H87.1462V13.1613C87.1462 14.4252 86.6685 15.4961 85.7724 16.3797C84.891 17.2479 83.8469 17.7019 82.6055 17.7019C81.3652 17.7019 80.296 17.2488 79.4145 16.3798C78.5162 15.4942 78.065 14.4231 78.065 13.1613V5.27114H76.718V12.9415C76.718 14.5908 77.2175 16.0779 78.3766 17.2738C79.5319 18.4654 80.9574 19 82.6055 19C84.2473 19 85.6614 18.4588 86.8098 17.2737C87.9749 16.0717 88.493 14.6034 88.493 12.9415V5.27114ZM84.5209 5.27114V13.1368C84.5209 13.8137 84.3011 14.3839 83.6967 14.7277C83.3726 14.9119 82.989 15.0003 82.6178 15.0051C82.2321 15.0102 81.8306 14.9251 81.4931 14.7354C80.8831 14.3927 80.6661 13.8159 80.6661 13.1368V11.6386H79.3535V13.1368C79.3535 14.2953 79.8197 15.3009 80.8499 15.8797C81.3897 16.183 82.0179 16.3256 82.6347 16.3177C83.2279 16.3099 83.8279 16.163 84.3448 15.8689C85.3665 15.2883 85.8341 14.2901 85.8341 13.1368V5.27114H84.5209Z" fill="#82798E"/>
<path fill-rule="evenodd" clip-rule="evenodd" d="M10.8785 7.57333L11.7971 6.65465C10.498 5.44979 8.80299 4.78288 7.02317 4.78288C3.14426 4.78288 0 7.92714 0 11.806C0 15.6848 3.14437 18.8291 7.02317 18.8291C8.80276 18.8291 10.4983 18.1623 11.7972 16.9573L10.8785 16.0387C9.8245 16.9998 8.45736 17.5311 7.02317 17.5311C3.86141 17.5311 1.29805 14.9677 1.29805 11.806C1.29805 8.64418 3.8613 6.08093 7.02317 6.08093C8.45725 6.08093 9.82438 6.61238 10.8785 7.57333ZM4.12652 11.8059C4.12652 10.2062 5.42334 8.90928 7.02317 8.90928V7.61112C4.70641 7.61112 2.82836 9.48918 2.82836 11.8059C2.82836 14.1227 4.70641 16.0008 7.02317 16.0008V14.7027C5.42334 14.7027 4.12652 13.4058 4.12652 11.8059Z" fill="#82798E"/>
<path fill-rule="evenodd" clip-rule="evenodd" d="M94.1169 18.658H95.4638V10.7923C95.4638 9.15644 96.1837 7.71742 97.6304 6.90494C98.3492 6.50067 99.1757 6.29993 100 6.29847V4.98035C99.1746 4.98271 98.3481 5.14094 97.5855 5.45718C97.1874 5.62248 96.8061 5.83107 96.454 6.08126C96.2589 6.22087 96.0178 6.23803 95.8036 6.12757C95.5894 6.01722 95.4638 5.81088 95.4638 5.56999V5.27125H94.1652V10.0978C94.1652 10.1214 94.164 10.1417 94.1618 10.1653C94.1326 10.4384 94.1169 10.7131 94.1169 10.9878V18.658ZM100 7.61111C99.4011 7.61245 98.7955 7.75566 98.273 8.04936C97.2424 8.62824 96.7758 9.63383 96.7758 10.7923V12.2905H98.089V10.7923C98.089 10.1132 98.3055 9.53638 98.9155 9.19367C99.2419 9.01065 99.6276 8.92508 100 8.92374V7.61111Z" fill="#82798E"/>
<path fill-rule="evenodd" clip-rule="evenodd" d="M21.5874 8.90917C23.1871 8.90917 24.484 10.2061 24.484 11.8059C24.484 13.4057 23.1871 14.7026 21.5874 14.7026C19.9875 14.7026 18.6906 13.4057 18.6906 11.8059C18.6906 10.2061 19.9875 8.90917 21.5874 8.90917ZM21.5874 6.08093C24.7492 6.08093 27.3124 8.64418 27.3124 11.806C27.3124 14.9677 24.749 17.5311 21.5874 17.5311C18.4256 17.5311 15.8621 14.9678 15.8621 11.806C15.8621 8.64407 18.4255 6.08093 21.5874 6.08093ZM21.5874 4.78288C17.7084 4.78288 14.5642 7.92702 14.5642 11.806C14.5642 15.685 17.7085 18.8291 21.5874 18.8291C25.4662 18.8291 28.6104 15.6847 28.6104 11.806C28.6104 7.92714 25.4663 4.78288 21.5874 4.78288ZM17.3926 11.8059C17.3926 14.1226 19.2706 16.0008 21.5874 16.0008C23.904 16.0008 25.7821 14.1226 25.7821 11.8059C25.7821 9.48918 23.904 7.61112 21.5874 7.61112C19.2706 7.61112 17.3926 9.48918 17.3926 11.8059Z" fill="#82798E"/>
<path fill-rule="evenodd" clip-rule="evenodd" d="M51.046 7.09333C51.049 6.75017 51.3296 6.47127 51.6733 6.47127H54.2453V5.27112H51.6733C51.3278 5.27112 51.046 4.9893 51.046 4.64368V0.386736H49.6991V4.64368C49.6991 4.9893 49.4173 5.27112 49.0718 5.27112H46.4997V6.47127H49.0718C49.4173 6.47127 49.6991 6.7532 49.6991 7.09871V11.5518V12.9415C49.6991 14.5907 50.1986 16.0779 51.3577 17.2738C52.1869 18.1291 53.1553 18.6459 54.2453 18.8694V17.5069C53.5594 17.2965 52.9415 16.9179 52.3955 16.3798C51.4973 15.4942 51.046 14.4231 51.046 13.1613V7.09333ZM54.2453 14.5819C53.8088 14.2329 53.6472 13.7229 53.6472 13.1368V7.9649H52.3346V13.1368C52.3346 14.2953 52.8007 15.3008 53.831 15.8797C53.9643 15.9545 54.1029 16.0196 54.2453 16.0751V14.5819Z" fill="#82798E"/>
<path fill-rule="evenodd" clip-rule="evenodd" d="M65.2919 8.90917C66.8917 8.90917 68.1886 10.2061 68.1886 11.8059C68.1886 13.4057 66.8917 14.7026 65.2919 14.7026C63.6921 14.7026 62.3952 13.4057 62.3952 11.8059C62.3952 10.2061 63.6921 8.90917 65.2919 8.90917ZM65.292 6.08093C68.4538 6.08093 71.017 8.64418 71.017 11.806C71.017 14.9677 68.4536 17.5311 65.292 17.5311C62.1302 17.5311 59.5667 14.9678 59.5667 11.806C59.5667 8.64407 62.1301 6.08093 65.292 6.08093ZM65.292 4.78288C61.4131 4.78288 58.2688 7.92702 58.2688 11.806C58.2688 15.685 61.4131 18.8291 65.292 18.8291C69.1708 18.8291 72.315 15.6847 72.315 11.806C72.315 7.92714 69.1709 4.78288 65.292 4.78288ZM61.097 11.8059C61.097 14.1226 62.9752 16.0008 65.2919 16.0008C67.6086 16.0008 69.4867 14.1226 69.4867 11.8059C69.4867 9.48918 67.6086 7.61112 65.2919 7.61112C62.9752 7.61112 61.097 9.48918 61.097 11.8059Z" fill="#82798E"/>
</svg>
