<svg width="100" height="17" viewBox="0 0 100 17" fill="none" xmlns="http://www.w3.org/2000/svg">
<path fill-rule="evenodd" clip-rule="evenodd" d="M70.2489 1.03225H62.8572C63.6864 1.5094 64.1738 2.35716 64.7303 3.49804L64.7397 3.51798L70.6556 16.6202H72.5125L73.8361 13.3249L69.8995 4.09445L69.893 4.07676C69.5866 3.24247 69.3005 2.15009 69.8968 1.37094C69.9995 1.23679 70.1182 1.12511 70.2489 1.03225ZM75.0231 2.37261C77.0262 3.32232 77.6534 6.05154 75.8986 7.51416C80.4647 5.1286 80.4609 0.300655 77.3988 0.284273C76.1928 0.277534 75.3552 1.30944 75.0231 2.37261Z" fill="#F4197D"/>
<path fill-rule="evenodd" clip-rule="evenodd" d="M10.9033 0.300177C11.6135 0.53702 12.2104 1.01361 12.5666 1.74979C13.1544 2.96462 12.8651 4.44728 11.9615 5.4071C12.3229 5.85776 12.7759 6.23783 13.3155 6.45192C13.8339 6.6575 14.4108 6.69466 14.9348 6.48628C17.7805 5.35505 16.0244 0.857741 10.9033 0.300177Z" fill="#F4197D"/>
<path fill-rule="evenodd" clip-rule="evenodd" d="M16.596 13.0386C14.9902 14.1354 13.0721 14.582 11.0398 14.3735C6.73949 13.9325 4.71219 11.0893 4.50905 6.92412C4.4408 5.5259 4.60322 4.02499 5.20394 2.74575C5.68306 1.72574 6.45097 0.84951 7.52379 0.451464C5.44715 0.740543 3.45111 1.60048 2.00918 3.16702C0.406697 4.90795 -0.160511 7.1472 0.0380446 9.47173C0.135309 10.6097 0.467171 11.7072 1.03494 12.6993C2.73207 15.665 6.01305 16.9653 9.31256 16.9653C12.4497 16.9653 14.9923 15.5137 16.596 13.0386Z" fill="#F4197D"/>
<path fill-rule="evenodd" clip-rule="evenodd" d="M98.5761 6.73341C98.3627 5.24373 97.9171 3.68422 96.8312 2.57209C95.3923 1.09832 93.0576 0.704493 90.9822 0.620895C92.7234 1.19559 93.3787 3.28449 93.6689 5.00221C93.6951 5.15368 93.7148 5.30767 93.7251 5.46176L93.7288 5.45455C94.0761 7.80876 94.3485 10.1986 94.7221 12.5376C95.1096 14.9666 96.2068 16.9659 99.3073 16.9659C99.5357 16.9659 99.7678 16.9578 100 16.9386C99.5263 13.5406 99.0629 10.1293 98.5761 6.73341Z" fill="#F4197D"/>
<path fill-rule="evenodd" clip-rule="evenodd" d="M92.6532 6.86755C89.4797 7.0647 83.0634 8.00262 82.7067 12.2979C82.5167 14.5802 84.4704 16.8105 88.1007 16.988C90.0788 17.0847 93.095 16.6032 94.1501 15.377C90.1715 17.0602 81.9934 11.5478 92.6532 6.86755Z" fill="#F4197D"/>
<path fill-rule="evenodd" clip-rule="evenodd" d="M89.829 0.629664C89.096 0.780476 88.4482 1.17862 88.0091 1.85778C87.2845 2.97862 87.4006 4.46109 88.1879 5.50236C87.7769 5.90181 87.2827 6.22188 86.7219 6.36979C86.1827 6.51189 85.606 6.4825 85.1099 6.21926C82.4138 4.78949 84.6774 0.592312 89.829 0.629664Z" fill="#F4197D"/>
<path fill-rule="evenodd" clip-rule="evenodd" d="M39.1161 8.34809V16.6202H39.0792C34.6992 16.6202 34.3802 14.3296 34.3802 11.9015V6.76855H34.3804V5.73973C34.3804 4.44271 34.3418 2.86485 33.4971 1.80289C33.2296 1.46672 32.9116 1.21584 32.5607 1.03226H41.0486C40.6856 1.21921 40.3554 1.47496 40.0752 1.81703C39.2078 2.8759 39.1161 4.42857 39.1161 5.73973V6.76855V8.34809ZM21.0365 7.40306C21.0365 9.37476 20.9098 10.6477 21.2387 12.3992C22.2649 17.8656 30.121 18.5161 32.5754 13.8516C29.2793 17.0738 25.8039 14.1049 25.8039 10.0291V5.92106C25.8039 4.25717 25.6917 2.13588 27.3491 1.2135H19.1519C20.5214 1.91673 20.9345 3.32693 21.0365 4.81642C21.0622 5.19303 21.0681 5.56608 21.0681 5.92106C21.0681 6.39952 21.0543 6.89624 21.0365 7.40306Z" fill="#F4197D"/>
<path fill-rule="evenodd" clip-rule="evenodd" d="M58.4566 5.27202C57.6383 4.23852 56.2136 3.73657 54.9261 4.14154C54.146 4.387 53.5877 4.90805 53.2501 5.57617C54.5466 0.590767 59.2515 -0.492445 59.9568 2.48747C60.0867 3.03614 59.9661 3.60158 59.6872 4.08462C59.3969 4.58733 58.9549 4.98023 58.4566 5.27202ZM51.7663 10.7578V1.03225H44.5229C46.2446 1.78528 47.0305 3.53211 47.0305 5.76537L47.0305 8.50666V8.55665V11.9127C47.0305 13.2239 46.9388 14.7765 46.0715 15.8354C45.7912 16.1776 45.4611 16.4332 45.098 16.6202H53.5859C53.235 16.4366 52.917 16.1857 52.6495 15.8495C51.8048 14.7876 51.7663 13.2097 51.7663 11.9127V10.7578Z" fill="#F4197D"/>
</svg>
