<svg width="100" height="30" viewBox="0 0 100 30" fill="none" xmlns="http://www.w3.org/2000/svg">
<path fill-rule="evenodd" clip-rule="evenodd" d="M78.2773 0.00031662H84.8728V18.1375L92.0909 7.22885H99.9999L92.7819 18.1375L99.9999 29.0463H92.0909L84.8728 18.1375V29.0463H78.2773V0.00031662Z" fill="#82798E"/>
<path fill-rule="evenodd" clip-rule="evenodd" d="M19.7861 1.90735e-06H26.3815V29.046H19.7861V26.2137C17.6912 28.3519 14.7717 29.6791 11.5419 29.6791C5.16756 29.6791 0 24.5117 0 18.1372C0 11.7628 5.16756 6.59541 11.5419 6.59541C14.7717 6.59541 17.6912 7.92265 19.7861 10.0607V1.90735e-06ZM19.7861 18.1372C19.7861 17.2303 19.0442 16.4885 18.1373 16.4885H16.2066C15.5274 14.5673 13.6956 13.1907 11.5419 13.1907C8.80997 13.1907 6.59541 15.4054 6.59541 18.1372C6.59541 20.8692 8.80997 23.0837 11.5419 23.0837C13.6956 23.0837 15.5274 21.7072 16.2066 19.7861H18.1373C19.0442 19.7861 19.7861 19.0441 19.7861 18.1372Z" fill="#82798E"/>
<path fill-rule="evenodd" clip-rule="evenodd" d="M43.5396 7.22861H50.135V29.0461H43.5396V7.22861ZM43.5396 0.000196457H50.135V5.11008H43.5396V0.000196457Z" fill="#82798E"/>
<path fill-rule="evenodd" clip-rule="evenodd" d="M52.8018 18.2021C52.8018 11.8276 57.9692 6.66018 64.3437 6.66018C70.7181 6.66018 75.8856 11.8276 75.8856 18.2021V29.1108H69.2902V28.6326V18.2021C69.2902 15.4703 67.0756 13.2556 64.3437 13.2556C61.6118 13.2556 59.3972 15.4703 59.3972 18.2021V28.6326V29.1108H52.8018V18.2021Z" fill="#82798E"/>
<path fill-rule="evenodd" clip-rule="evenodd" d="M29.1851 18.2021C29.1851 11.8277 34.3525 6.66018 40.7269 6.66018V13.2556C37.9952 13.2556 35.7805 15.4703 35.7805 18.2021V28.6326V29.1108H29.1851V18.2021Z" fill="#82798E"/>
</svg>
