<svg width="100" height="18" viewBox="0 0 100 18" fill="none" xmlns="http://www.w3.org/2000/svg">
<path fill-rule="evenodd" clip-rule="evenodd" d="M23.775 2.12682C25.8848 8.04842 27.075 11.2378 28.859 16.1587C29.0176 16.5619 28.9288 16.9693 28.6092 17.3093C28.3457 17.5898 28.0329 17.7281 27.6787 17.7939H33.9688C32.9741 17.6526 32.4735 17.1972 32.0969 16.2891L26.2305 0.27142L26.167 0.118643C24.7225 0.118643 23.2781 0.118643 21.8337 0.118643C22.8237 0.319801 23.4191 1.14326 23.1258 1.95221L17.9583 16.2052C17.6049 17.115 17.1208 17.6407 16.0566 17.7939H19.7659C19.4094 17.7276 19.0975 17.5885 18.8351 17.3093C18.5094 16.9628 18.5034 16.5558 18.6584 16.1621C20.4124 11.2924 21.51 8.32767 23.775 2.12682Z" fill="#82798E"/>
<path fill-rule="evenodd" clip-rule="evenodd" d="M60.0007 0.118643H54.9907C55.5839 0.256683 56.0183 0.686852 56.0183 1.19395V16.7186C56.0183 17.2257 55.5839 17.6559 54.9907 17.7939H60.0005C59.4074 17.6559 58.9731 17.2257 58.9731 16.7186V1.19395C58.9731 0.68693 59.4074 0.256683 60.0007 0.118643ZM63.6582 17.7939H68.6674L68.9588 14.1936C68.2474 16.1524 66.1802 17.5292 63.6582 17.7939Z" fill="#82798E"/>
<path fill-rule="evenodd" clip-rule="evenodd" d="M78.3365 0.118643H73.3264C73.9198 0.256683 74.3542 0.686853 74.3542 1.19387V16.7186C74.3542 17.2257 73.9198 17.6559 73.3264 17.7939H78.3365C77.7439 17.6559 77.3094 17.2257 77.3094 16.7186V1.19387C77.3094 0.686853 77.7439 0.256683 78.3365 0.118643Z" fill="#82798E"/>
<path fill-rule="evenodd" clip-rule="evenodd" d="M7.70543 0.0250893C9.12225 0.311586 10.4996 1.11182 11.2569 1.35163C11.34 1.37795 11.4222 1.40163 11.5036 1.42216C12.3114 1.6247 13.0594 1.50472 14.0931 0.379951C13.864 1.64021 13.4091 2.67463 12.7462 3.25588C11.8341 4.05619 10.5283 3.99785 8.87703 2.48813C8.32881 1.98697 7.7319 1.54206 7.13475 1.21606C7.00473 1.14515 6.87487 1.07987 6.7454 1.02085C6.1633 0.787745 5.56484 0.787592 5.10165 0.849783C4.60651 0.916218 4.266 1.05387 4.266 1.05387C4.10551 1.12409 3.95836 1.20951 3.82279 1.30696L3.82225 1.30742C2.95103 1.95588 2.58367 3.1122 2.43799 3.95457C2.10735 5.8656 2.48846 8.03396 3.12349 9.88473C3.62518 11.3465 4.35173 12.8215 5.33344 14.1295C6.22148 15.3125 8.2383 17.4761 10.3353 17.0375C11.0559 16.8867 12.3154 15.8633 12.8469 15.4225L12.9806 15.312L13.0478 15.4029L12.9172 15.5043C12.4202 15.8913 11.914 16.2997 11.397 16.6681C10.2533 17.4832 9.14162 17.9124 7.56191 17.9124C7.20435 17.9124 6.84833 17.8826 6.49872 17.8242C4.46492 17.484 2.90173 16.2322 1.88971 14.8735C0.57804 13.1127 0 10.9798 0 8.95618C0 6.9325 0.57804 4.7997 1.88971 3.03882C2.34748 2.42409 2.91816 1.83134 3.59417 1.33497C3.87858 1.12841 4.18143 0.938902 4.50211 0.772005C5.09679 0.462513 5.75304 0.230648 6.46716 0.111126C6.81685 0.0525608 7.17294 0.0229301 7.53051 0.0229301L7.70543 0.0250893Z" fill="#82798E"/>
<path fill-rule="evenodd" clip-rule="evenodd" d="M89.8063 2.12682C91.9158 8.04842 93.1064 11.2378 94.8904 16.1587C95.0485 16.5619 94.9598 16.9693 94.6404 17.3093C94.3765 17.5898 94.064 17.7281 93.7098 17.7939H99.9999C99.0053 17.6526 98.5046 17.1972 98.128 16.2891L92.2615 0.27142L92.1982 0.118643C90.7538 0.118643 89.3093 0.118643 87.8649 0.118643C88.8549 0.319801 89.4505 1.14326 89.1566 1.95221L83.9891 16.2052C83.6357 17.115 83.1519 17.6407 82.0879 17.7939H85.797C85.4405 17.7276 85.1288 17.5885 84.8664 17.3093C84.5408 16.9628 84.5347 16.5558 84.6897 16.1621C86.4436 11.2924 87.5408 8.32767 89.8063 2.12682Z" fill="#82798E"/>
<path fill-rule="evenodd" clip-rule="evenodd" d="M44.0142 0.00225258C45.431 0.288673 46.8084 1.08898 47.5658 1.32872C47.6488 1.35503 47.731 1.37872 47.8124 1.39924C48.6202 1.60179 49.3682 1.4818 50.4019 0.357037C50.1728 1.6173 49.7178 2.65171 49.0551 3.23304C48.1429 4.03327 46.8371 3.97494 45.1859 2.46522C44.6377 1.96414 44.0407 1.51915 43.4435 1.19315C43.3135 1.12224 43.1837 1.05696 43.0542 0.998011C42.4722 0.764832 41.8736 0.764677 41.4104 0.826868C40.9153 0.893303 40.5749 1.03096 40.5749 1.03096C39.356 1.56452 38.8853 2.9727 38.7154 3.95457C38.3847 5.8656 38.7658 8.03396 39.4009 9.88473C40.0361 11.7356 41.0947 13.7622 42.6049 15.2881C43.4773 16.1697 45.0246 17.3697 46.6126 17.0375C47.1722 16.9205 47.7637 16.4955 48.1672 16.1811L48.3676 16.025L48.11 15.9333C47.7162 15.7932 47.2892 15.7225 46.8566 15.7225L46.6834 15.7263V10.0486C46.6834 9.56699 46.273 9.15811 45.7111 9.02409H50.5936C50.0364 9.16297 49.6381 9.57185 49.6381 10.0446V17.2174C49.4436 16.7913 49.0796 16.4185 48.5925 16.1497L48.4584 16.0756L48.3414 16.1658C48.1225 16.3349 47.9017 16.5061 47.6745 16.6681C46.5307 17.4833 45.419 17.9124 43.8393 17.9124C43.4817 17.9124 43.1256 17.8826 42.776 17.8241C40.7421 17.4838 39.1791 16.2322 38.1671 14.8735C36.8554 13.1126 36.2775 10.9798 36.2775 8.95619C36.2775 6.9325 36.8554 4.79978 38.1671 3.03883C38.8236 2.15727 39.7123 1.32085 40.811 0.749088C41.4056 0.439598 42.0618 0.207733 42.776 0.0882111C43.1256 0.0296459 43.4817 1.52588e-05 43.8393 1.52588e-05L44.0142 0.00225258Z" fill="#82798E"/>
</svg>
