<svg width="100" height="24" viewBox="0 0 100 24" fill="none" xmlns="http://www.w3.org/2000/svg">
<path fill-rule="evenodd" clip-rule="evenodd" d="M7.64405 14.3041L3.24202 4.40732C3.2165 4.34998 3.16646 4.31749 3.10383 4.31749H0.152285C0.0977516 4.31749 0.055024 4.34076 0.0253399 4.38652C-0.00423186 4.43229 -0.00794216 4.48086 0.014321 4.53056L6.40462 18.8009C6.43026 18.858 6.48007 18.8904 6.5427 18.8904H9.05472C9.11713 18.8904 9.16682 18.8583 9.19246 18.8016L15.6623 4.53123C15.6849 4.48142 15.6814 4.43274 15.6517 4.38686C15.6221 4.34087 15.5793 4.31749 15.5246 4.31749H12.5712C12.5089 4.31749 12.4591 4.34965 12.4334 4.40654L7.96552 14.305C7.93628 14.3696 7.87545 14.4087 7.8045 14.4086C7.73344 14.4084 7.67295 14.3689 7.64405 14.3041Z" fill="#82798E"/>
<path fill-rule="evenodd" clip-rule="evenodd" d="M56.9594 4.13889C53.1957 4.60383 50.3687 7.81388 50.3687 11.604C50.3687 15.394 53.1958 18.6038 56.9594 19.0689C57.2684 19.1071 57.5798 19.1265 57.8911 19.1265C58.2025 19.1265 58.5138 19.1071 58.8228 19.0689C62.5864 18.6038 65.4136 15.394 65.4136 11.604C65.4136 7.81388 62.5864 4.60405 58.8228 4.139C58.5138 4.10077 58.2025 4.08144 57.8911 4.08144C57.5798 4.08144 57.2684 4.10066 56.9594 4.13889ZM58.6989 7.13778C60.8574 7.52322 62.4287 9.41356 62.4287 11.604C62.4287 13.8179 60.8257 15.7175 58.6399 16.0799C58.3925 16.1209 58.1419 16.1417 57.8911 16.1417C57.6404 16.1417 57.3896 16.1209 57.1424 16.0799L57.0794 16.0694C54.9227 15.6828 53.3534 13.7928 53.3534 11.604C53.3534 9.38995 54.9565 7.49039 57.1423 7.12811C57.3896 7.08707 57.6404 7.06627 57.8911 7.06627C58.1419 7.06627 58.3925 7.08684 58.6397 7.12799L58.6989 7.13778Z" fill="#82798E"/>
<path fill-rule="evenodd" clip-rule="evenodd" d="M74.253 4.13883C70.4893 4.60377 67.6622 7.81382 67.6622 11.6039C67.6622 15.394 70.4894 18.6038 74.253 19.0688C74.562 19.1071 74.8734 19.1264 75.1847 19.1264C75.4962 19.1264 75.8074 19.1071 76.1164 19.0688C79.88 18.6038 82.7067 15.394 82.7067 11.6039V0.214224C82.7067 0.13113 82.6392 0.0629902 82.556 0.0629902H79.8737C79.7906 0.0629902 79.7223 0.13113 79.7223 0.214224V11.6039C79.7223 13.8179 78.1193 15.7174 75.9335 16.0798C75.6861 16.1209 75.4356 16.1417 75.1847 16.1417C74.934 16.1417 74.6833 16.1209 74.436 16.0798L74.373 16.0694C72.2163 15.6827 70.647 13.7927 70.647 11.6039C70.647 9.38989 72.2501 7.49033 74.4358 7.12805C74.6832 7.08701 74.934 7.06621 75.1847 7.06621C75.4354 7.06621 75.6861 7.08678 75.9334 7.12793L75.9925 7.13772C76.6951 7.2632 77.357 7.55453 77.9254 7.9863C77.9735 8.02296 78.0299 8.02835 78.0842 8.00137C78.1384 7.97449 78.1682 7.92637 78.1682 7.86587V4.7957C78.1682 4.73184 78.134 4.68057 78.075 4.65605C77.449 4.39564 76.7892 4.22203 76.1164 4.13894C75.8074 4.10071 75.4962 4.08137 75.1847 4.08137C74.8734 4.08137 74.562 4.1006 74.253 4.13883Z" fill="#82798E"/>
<path fill-rule="evenodd" clip-rule="evenodd" d="M22.3726 4.13883C18.6089 4.60377 15.7819 7.81382 15.7819 11.6039C15.7819 15.394 18.6091 18.6038 22.3726 19.0688C22.6816 19.1071 22.993 19.1264 23.3043 19.1264C23.6157 19.1264 23.927 19.1071 24.236 19.0688C24.9088 18.9857 25.5686 18.8121 26.1946 18.5517C26.2536 18.5272 26.2878 18.4759 26.2878 18.4121V15.3419C26.2878 15.2814 26.258 15.2333 26.2037 15.2064C26.1496 15.1795 26.0932 15.1848 26.045 15.2214C25.46 15.6657 24.7778 15.9596 24.0532 16.0798C23.8057 16.1209 23.5551 16.1417 23.3043 16.1417C23.0536 16.1417 22.803 16.1209 22.5556 16.0798L22.4927 16.0694C20.336 15.6827 18.7666 13.7927 18.7666 11.6039C18.7666 9.38989 20.3697 7.49033 22.5555 7.12805C22.8028 7.08701 23.0536 7.06621 23.3043 7.06621C23.5551 7.06621 23.8057 7.08678 24.0529 7.12793L24.1121 7.13772C26.2706 7.52316 27.8421 9.4135 27.8421 11.6039V18.739C27.8421 18.8223 27.9102 18.8903 27.9933 18.8903H30.6755C30.7586 18.8903 30.8268 18.8223 30.8268 18.739V11.6039C30.8268 7.81382 27.9996 4.60399 24.236 4.13894C23.927 4.10071 23.6157 4.08137 23.3043 4.08137C22.993 4.08137 22.6816 4.1006 22.3726 4.13883Z" fill="#82798E"/>
<path fill-rule="evenodd" clip-rule="evenodd" d="M39.6661 4.13883C35.9025 4.60377 33.0754 7.81381 33.0754 11.6039C33.0754 15.394 35.9025 18.6038 39.6661 19.0688C39.9752 19.1071 40.2864 19.1264 40.5979 19.1264C40.9092 19.1264 41.2205 19.1071 41.5296 19.0688C45.2932 18.6038 48.1202 15.394 48.1202 11.6039C48.1202 7.81381 45.2932 4.60399 41.5296 4.13894C41.2205 4.10071 40.9092 4.08137 40.5979 4.08137C40.2864 4.08137 39.9752 4.1006 39.6661 4.13883ZM46.9822 1.81075C45.9545 1.81075 45.1214 2.64405 45.1214 3.67163C45.1214 4.69922 45.9545 5.53241 46.9822 5.53241C48.0097 5.53241 48.843 4.69922 48.843 3.67163C48.843 2.64393 48.0098 1.81075 46.9822 1.81075ZM35.3797 19.3339C35.2518 19.2417 35.1263 19.1459 35.0036 19.0469C34.9389 18.995 34.843 19.0052 34.7909 19.0698L33.1088 21.1591C33.0569 21.2236 33.0671 21.3197 33.1318 21.3717C34.8578 22.7624 36.9279 23.6376 39.1275 23.9093C39.6152 23.9696 40.1065 24 40.5979 24C41.0892 24 41.5805 23.9696 42.0682 23.9093C44.2678 23.6376 46.3378 22.7624 48.0639 21.3717C48.1286 21.3197 48.1388 21.2236 48.0869 21.1591L46.4047 19.0698C46.3527 19.0052 46.2568 18.995 46.1921 19.0469C46.0693 19.1459 45.9439 19.2417 45.816 19.3339C44.6008 20.2109 43.1894 20.7633 41.7022 20.9471C41.336 20.9923 40.9669 21.0152 40.5979 21.0152C40.2288 21.0152 39.8597 20.9923 39.4935 20.9471C38.0063 20.7633 36.5949 20.2109 35.3797 19.3339ZM41.4057 7.13771C43.5641 7.52316 45.1355 9.4135 45.1355 11.6039C45.1355 13.8179 43.5324 15.7174 41.3466 16.0798C41.0993 16.1209 40.8486 16.1417 40.5979 16.1417C40.347 16.1417 40.0964 16.1209 39.8492 16.0798L39.7862 16.0694C37.6295 15.6827 36.0602 13.7927 36.0602 11.6039C36.0602 9.38988 37.6632 7.49033 39.849 7.12804C40.0963 7.087 40.347 7.0662 40.5979 7.0662C40.8485 7.0662 41.0993 7.08678 41.3465 7.12793L41.4057 7.13771Z" fill="#82798E"/>
<path fill-rule="evenodd" clip-rule="evenodd" d="M91.5468 4.13883C87.7823 4.60377 84.9556 7.81382 84.9556 11.6039C84.9556 15.394 87.7834 18.6038 91.5468 19.0688C91.856 19.1071 92.1663 19.1264 92.4778 19.1264C92.7893 19.1264 93.1007 19.1071 93.4099 19.0688C94.0823 18.9857 94.7423 18.8121 95.3686 18.5517C95.4271 18.5272 95.462 18.4759 95.462 18.4121V15.3419C95.462 15.2814 95.4316 15.2333 95.3776 15.2064C95.3237 15.1795 95.2674 15.1848 95.2191 15.2214C94.6344 15.6657 93.9519 15.9596 93.2267 16.0798C92.9793 16.1209 92.7285 16.1417 92.4778 16.1417C92.2271 16.1417 91.9763 16.1209 91.729 16.0798L91.666 16.0694C89.5094 15.6827 87.9408 13.7927 87.9408 11.6039C87.9408 9.38989 89.5431 7.49033 91.729 7.12805C91.9763 7.08701 92.2271 7.06621 92.4778 7.06621C92.7285 7.06621 92.9793 7.08678 93.2267 7.12793L93.2862 7.13772C95.444 7.52316 97.0159 9.4135 97.0159 11.6039V18.739C97.0159 18.8223 97.0845 18.8903 97.1677 18.8903H99.8494C99.9326 18.8903 100 18.8223 100 18.739V11.6039C100 7.81382 97.1733 4.60399 93.4099 4.13894C93.1007 4.10071 92.7893 4.08137 92.4778 4.08137C92.1663 4.08137 91.856 4.1006 91.5468 4.13883Z" fill="#82798E"/>
</svg>
