<svg width="100" height="15" viewBox="0 0 100 15" fill="none" xmlns="http://www.w3.org/2000/svg">
<path fill-rule="evenodd" clip-rule="evenodd" d="M0 3.74426V2.3373C0 1.56354 0.633098 0.930441 1.40686 0.930441H2.81382H11.2556H12.6626C13.4364 0.930441 14.0695 1.56354 14.0695 2.3373V3.74426H14.0697V12.1862H14.0695V13.5931C14.0695 14.3669 13.4364 15 12.6626 15H11.2556H2.81382H1.40686C0.633098 15 0 14.3669 0 13.5931V12.1862V3.74426ZM88.7438 3.74426H83.1161V15H80.3028V3.74426V2.3373C80.3028 1.56354 80.9355 0.930441 81.7095 0.930441H83.1161H85.2271H87.3371H92.9647H94.3724H95.683H98.5933C99.3673 0.930441 100 1.56354 100 2.3373V3.74426V15H97.1857V3.74426H95.683H94.3724H91.5581V15H88.7438V12.4573V3.74426ZM74.3719 15H64.5232C63.7494 15 63.1164 14.3669 63.1164 13.5931V12.1862H63.1163V0.930441H65.9302V12.1862H74.3719V0.930441H77.1863V12.1862V13.5931C77.1863 14.3669 76.5526 15 75.7791 15H74.3722V12.1862H74.3719V15ZM59.9999 6.55807V15H57.1861V0.930441H59.9999V6.55807ZM42.8139 0.930441H52.6626C53.4364 0.930441 54.0695 1.56354 54.0695 2.3373V3.74426H54.0697V15H51.2556V3.74426H42.8139V0.930441ZM40.0001 3.74426V2.3373C40.0001 1.56354 40.6331 0.930441 41.4069 0.930441H42.8138V3.74426H42.8139V15H40.0001V3.74426ZM25.6278 3.74426H19.9999V15H17.1861V3.74426V2.3373C17.1861 1.56354 17.8192 0.930441 18.5929 0.930441H19.9999H22.1105H24.221H29.8488H31.2557H32.567H35.4768C36.2506 0.930441 36.8837 1.56354 36.8837 2.3373V3.74426V15H34.0697V3.74426H32.567H31.2557H28.4419H28.4417V15H25.6278V12.4573V3.74426ZM11.2556 3.78936H2.81382V12.1185H11.2556V3.78936Z" fill="#82798E"/>
</svg>
