<svg width="32" height="32" viewBox="0 0 32 32" fill="none" xmlns="http://www.w3.org/2000/svg">
<g clip-path="url(#clip0_146_457)">
<path d="M28.5857 6.12105H29.5744C29.9193 6.12105 30.199 5.84135 30.199 5.49646C30.199 5.15156 29.9193 4.87187 29.5744 4.87187H27.201C26.8561 4.87187 26.5764 5.15156 26.5764 5.49646V7.8699C26.5764 8.2148 26.8561 8.49449 27.201 8.49449C27.5459 8.49449 27.8256 8.2148 27.8256 7.8699V7.18266C29.7207 9.71981 30.7508 12.7982 30.7508 16C30.7508 24.1337 24.1337 30.7508 16 30.7508C7.86634 30.7508 1.24918 24.1337 1.24918 16C1.24918 7.86634 7.86634 1.24918 16 1.24918C16.6015 1.24918 17.207 1.28572 17.7996 1.35773C18.1415 1.39908 18.4534 1.15555 18.495 0.813091C18.5366 0.470691 18.2928 0.15927 17.9503 0.117673C17.3079 0.039599 16.6518 0 16 0C11.7262 0 7.70825 1.66428 4.6863 4.6863C1.66428 7.70825 0 11.7262 0 16C0 20.2738 1.66428 24.2917 4.6863 27.3137C7.70825 30.3357 11.7262 32 16 32C20.2738 32 24.2917 30.3357 27.3137 27.3137C30.3357 24.2917 32 20.2738 32 16C32 12.3936 30.7952 8.93133 28.5857 6.12105Z" fill="url(#paint0_linear_146_457)"/>
<path d="M6.77511 9.43211C6.48362 9.24761 6.09781 9.33443 5.91324 9.62573C4.48736 11.8778 3.85615 14.5861 4.13591 17.2519C4.41978 19.9573 5.63742 22.5085 7.56453 24.4356C9.89019 26.7613 12.9451 27.9242 16.0001 27.9242C19.0551 27.9242 22.11 26.7614 24.4357 24.4356C29.0871 19.7842 29.0871 12.2158 24.4357 7.56453C22.5115 5.64041 19.9645 4.42321 17.2637 4.13715C14.6028 3.85515 11.8974 4.48143 9.64629 5.90031C9.35442 6.08425 9.26704 6.46993 9.45092 6.76174C9.63486 7.05361 10.0205 7.14099 10.3124 6.95711C14.5557 4.28262 20.0001 4.89553 23.5524 8.44782C27.7167 12.6121 27.7167 19.3879 23.5524 23.5523C19.3881 27.7167 12.6122 27.7167 8.44789 23.5523C4.94469 20.0491 4.3226 14.4732 6.96873 10.294C7.15318 10.0025 7.06655 9.61668 6.77511 9.43211Z" fill="url(#paint1_linear_146_457)"/>
<path d="M24.1197 16.6347H24.89C25.2349 16.6347 25.5145 16.355 25.5145 16.0101C25.5145 15.6652 25.2349 15.3855 24.89 15.3855H24.1197C23.7748 15.3855 23.4951 15.6652 23.4951 16.0101C23.4951 16.355 23.7747 16.6347 24.1197 16.6347Z" fill="url(#paint2_linear_146_457)"/>
<path d="M6.48535 15.9898C6.48535 16.3347 6.76504 16.6144 7.10994 16.6144H7.88018C8.22508 16.6144 8.50477 16.3347 8.50477 15.9898C8.50477 15.6449 8.22508 15.3652 7.88018 15.3652H7.10994C6.76504 15.3652 6.48535 15.6449 6.48535 15.9898Z" fill="url(#paint3_linear_146_457)"/>
<path d="M16.6347 7.88018V7.10994C16.6347 6.76504 16.355 6.48535 16.0101 6.48535C15.6652 6.48535 15.3855 6.76504 15.3855 7.10994V7.88018C15.3855 8.22508 15.6652 8.50477 16.0101 8.50477C16.355 8.50477 16.6347 8.22508 16.6347 7.88018Z" fill="url(#paint4_linear_146_457)"/>
<path d="M15.3652 24.1197V24.89C15.3652 25.2349 15.6449 25.5145 15.9898 25.5145C16.3347 25.5145 16.6144 25.2349 16.6144 24.89V24.1197C16.6144 23.7748 16.3347 23.4951 15.9898 23.4951C15.6449 23.4951 15.3652 23.7747 15.3652 24.1197Z" fill="url(#paint5_linear_146_457)"/>
<path d="M12.8693 11.9859C12.6253 11.7421 12.2299 11.7421 11.9859 11.9859C11.742 12.2298 11.742 12.6253 11.9859 12.8693L14.1027 14.9861C13.9405 15.2884 13.8482 15.6336 13.8482 16C13.8482 17.1864 14.8135 18.1517 16 18.1517C17.1864 18.1517 18.1517 17.1864 18.1517 16C18.1517 15.6336 18.0594 15.2884 17.8972 14.9861L22.1684 10.7149C22.4123 10.471 22.4123 10.0755 22.1684 9.83156C21.9244 9.58772 21.529 9.58772 21.285 9.83156L17.0139 14.1027C16.7116 13.9405 16.3663 13.8482 16 13.8482C15.6336 13.8482 15.2884 13.9406 14.9861 14.1027L12.8693 11.9859ZM16.9025 16C16.9025 16.4976 16.4976 16.9025 16 16.9025C15.5023 16.9025 15.0974 16.4976 15.0974 16C15.0974 15.5023 15.5023 15.0974 16 15.0974C16.4976 15.0974 16.9025 15.5023 16.9025 16Z" fill="url(#paint6_linear_146_457)"/>
<path d="M8.44752 8.44753C8.56432 8.33135 8.63109 8.17021 8.63109 8.00594C8.63109 7.84167 8.56432 7.68115 8.44752 7.56435C8.33135 7.44824 8.17077 7.38135 8.00594 7.38135C7.84167 7.38135 7.68053 7.44818 7.56435 7.56435C7.44824 7.68053 7.38135 7.84167 7.38135 8.00594C7.38135 8.17083 7.44818 8.33135 7.56435 8.44753C7.68053 8.56364 7.84167 8.63053 8.00594 8.63053C8.17077 8.63053 8.33135 8.56364 8.44752 8.44753Z" fill="url(#paint7_linear_146_457)"/>
<path d="M20.3265 1.86612C20.4914 1.86612 20.6526 1.79985 20.7687 1.68312C20.8849 1.56694 20.9518 1.40636 20.9518 1.24153C20.9518 1.07727 20.8849 0.916122 20.7687 0.799948C20.6526 0.683837 20.4914 0.616943 20.3265 0.616943C20.1622 0.616943 20.0011 0.683774 19.885 0.799948C19.7688 0.916122 19.7019 1.07727 19.7019 1.24153C19.7019 1.40643 19.7687 1.56694 19.885 1.68312C20.0011 1.79985 20.1622 1.86612 20.3265 1.86612Z" fill="url(#paint8_linear_146_457)"/>
</g>
<defs>
<linearGradient id="paint0_linear_146_457" x1="16" y1="0" x2="16" y2="32" gradientUnits="userSpaceOnUse">
<stop stop-color="#FD1E43"/>
<stop offset="1" stop-color="#F4197D"/>
</linearGradient>
<linearGradient id="paint1_linear_146_457" x1="15.9977" y1="4.07104" x2="15.9977" y2="27.9242" gradientUnits="userSpaceOnUse">
<stop stop-color="#FD1E43"/>
<stop offset="1" stop-color="#F4197D"/>
</linearGradient>
<linearGradient id="paint2_linear_146_457" x1="24.5048" y1="15.3855" x2="24.5048" y2="16.6347" gradientUnits="userSpaceOnUse">
<stop stop-color="#FD1E43"/>
<stop offset="1" stop-color="#F4197D"/>
</linearGradient>
<linearGradient id="paint3_linear_146_457" x1="7.49506" y1="15.3652" x2="7.49506" y2="16.6144" gradientUnits="userSpaceOnUse">
<stop stop-color="#FD1E43"/>
<stop offset="1" stop-color="#F4197D"/>
</linearGradient>
<linearGradient id="paint4_linear_146_457" x1="16.0101" y1="6.48535" x2="16.0101" y2="8.50477" gradientUnits="userSpaceOnUse">
<stop stop-color="#FD1E43"/>
<stop offset="1" stop-color="#F4197D"/>
</linearGradient>
<linearGradient id="paint5_linear_146_457" x1="15.9898" y1="23.4951" x2="15.9898" y2="25.5145" gradientUnits="userSpaceOnUse">
<stop stop-color="#FD1E43"/>
<stop offset="1" stop-color="#F4197D"/>
</linearGradient>
<linearGradient id="paint6_linear_146_457" x1="17.0771" y1="9.64868" x2="17.0771" y2="18.1517" gradientUnits="userSpaceOnUse">
<stop stop-color="#FD1E43"/>
<stop offset="1" stop-color="#F4197D"/>
</linearGradient>
<linearGradient id="paint7_linear_146_457" x1="8.00622" y1="7.38135" x2="8.00622" y2="8.63053" gradientUnits="userSpaceOnUse">
<stop stop-color="#FD1E43"/>
<stop offset="1" stop-color="#F4197D"/>
</linearGradient>
<linearGradient id="paint8_linear_146_457" x1="20.3268" y1="0.616943" x2="20.3268" y2="1.86612" gradientUnits="userSpaceOnUse">
<stop stop-color="#FD1E43"/>
<stop offset="1" stop-color="#F4197D"/>
</linearGradient>
<clipPath id="clip0_146_457">
<rect width="32" height="32" fill="white"/>
</clipPath>
</defs>
</svg>
